<svg version="1.0" xmlns="http://www.w3.org/2000/svg"
 width="320.000000pt" height="320.000000pt" viewBox="0 0 320.000000 320.000000"
 preserveAspectRatio="xMidYMid meet">
<g transform="translate(0.000000,320.000000) scale(0.100000,-0.100000)"
fill="#000000" stroke="none">
<path d="M2150 3148 c-80 -30 -202 -113 -310 -210 -52 -47 -314 -306 -582
-574 -527 -530 -525 -528 -555 -668 -23 -112 -1 -233 62 -337 36 -60 1118
-1135 1219 -1211 144 -109 256 -141 347 -101 98 44 163 131 163 218 0 112 -2
114 -635 750 -319 320 -579 585 -579 590 0 5 237 248 528 540 384 386 536 546
561 589 91 154 93 265 8 362 -69 78 -124 91 -227 52z"/>
</g>
</svg>
